<svg width="96" height="21" viewBox="0 0 96 21" fill="none" xmlns="http://www.w3.org/2000/svg"><path d="M4.698 8.936a8.672 8.672 0 01.984-3.682c-1.017 4.9 1.285 10.503 5.115 15.425 1.984-3.001 4.231-8.3.714-13.902C9.192 3.084 9.379 1.075 10.094 0 4.49.183 0 4.822 0 10.514 0 16.034 4.225 20.563 9.594 21c-3.012-3.782-5.06-8.078-4.896-12.064z" fill="#0044D9"/><path d="M18.434 7.718c.852-.687.621-2.702-1.72-5.614a10.54 10.54 0 014.165 8.41c0 5.348-3.956 9.76-9.082 10.43 3.242-2.718 6.099-7.977 2.022-13.503-2.824-3.826-2.88-6.145-2.461-7.408l.038.005c-.11 1.113.589 2.924 1.874 4.69 2.165 2.978 4.23 3.742 5.165 2.99zm-2.06-1.135c.82 0 1.484-.67 1.484-1.495 0-.826-.665-1.494-1.484-1.494-.82 0-1.484.669-1.484 1.494 0 .826.664 1.495 1.484 1.495z" fill="#FD5F7C"/><path d="M34.769 17.722h-7.983V3.494h7.988v1.965h-5.68v3.875h5.323v1.949h-5.324v4.468h5.681v1.971h-.005zm8.703 0l-.45-1.5h-.077c-.517.653-1.032 1.101-1.555 1.339-.522.238-1.192.354-2.011.354-1.05 0-1.868-.287-2.456-.858-.588-.57-.885-1.379-.885-2.425 0-1.107.407-1.948 1.225-2.514.819-.564 2.066-.875 3.737-.924l1.846-.062v-.575c0-.687-.16-1.202-.479-1.545-.318-.343-.813-.509-1.483-.509-.55 0-1.072.083-1.578.243-.5.16-.983.355-1.45.576l-.73-1.628a7.91 7.91 0 011.9-.697 8.62 8.62 0 011.951-.238c1.357 0 2.384.3 3.077.897.692.598 1.038 1.534 1.038 2.812v7.253h-1.62v.001zm-3.38-1.556c.825 0 1.485-.232 1.985-.697.5-.465.747-1.113.747-1.949v-.935l-1.374.061c-1.072.039-1.846.221-2.336.543-.483.32-.73.813-.73 1.472 0 .482.143.853.423 1.113.297.26.72.393 1.286.393zm11.358-.1c.555 0 1.11-.088 1.66-.26v1.723a4.41 4.41 0 01-.973.276 6.887 6.887 0 01-1.23.111c-2.15 0-3.225-1.14-3.225-3.427V8.692h-1.456V7.679l1.566-.836.775-2.276h1.4V6.96h3.045V8.69h-3.045v5.758c0 .554.138.959.412 1.224.27.26.627.393 1.072.393zm6.11-2.11c0-.851.204-1.588.616-2.225.412-.631 1.154-1.263 2.23-1.882-.61-.72-1.027-1.33-1.252-1.827a3.708 3.708 0 01-.335-1.545c0-.985.352-1.765 1.05-2.336.697-.57 1.636-.858 2.812-.858 1.137 0 2.033.276 2.687.83.648.554.978 1.301.978 2.243a3.37 3.37 0 01-.654 2.015c-.434.604-1.159 1.206-2.176 1.81l3.341 3.25c.522-.692.956-1.71 1.303-3.056h2.334c-.45 1.843-1.17 3.344-2.164 4.506l2.906 2.835h-2.928l-1.44-1.412a7.358 7.358 0 01-2.098 1.201c-.742.271-1.566.404-2.468.404-1.483 0-2.642-.354-3.489-1.063-.83-.697-1.252-1.667-1.252-2.89zm4.869 1.994c1.175 0 2.187-.349 3.022-1.04l-3.698-3.67c-.681.442-1.153.851-1.412 1.239a2.316 2.316 0 00-.385 1.318c0 .637.225 1.151.67 1.55.446.405 1.05.604 1.803.604zm-1.44-9.39c0 .41.11.798.325 1.157.214.366.516.747.9 1.157.726-.416 1.236-.803 1.533-1.163.291-.36.44-.764.44-1.213 0-.42-.137-.758-.417-1.013-.28-.255-.654-.382-1.116-.382-.51 0-.912.133-1.214.393-.302.26-.45.62-.45 1.063v.001zm17.445 11.162h-2.291V3.494h7.966v1.965h-5.681v4.446h5.324v1.976h-5.324v5.841h.005zm7.071-13.614c0-.41.11-.726.335-.947.22-.221.539-.332.95-.332.402 0 .71.11.935.332.22.221.335.537.335.947 0 .387-.11.697-.335.919-.226.221-.534.337-.934.337-.412 0-.73-.11-.95-.337-.22-.227-.336-.532-.336-.92zm2.407 13.614h-2.269V6.959h2.27v10.763zm6.428-1.655c.555 0 1.11-.089 1.66-.26v1.722a4.405 4.405 0 01-.973.276 6.888 6.888 0 01-1.23.111c-2.148 0-3.225-1.14-3.225-3.427V8.692h-1.456V7.679l1.566-.836.774-2.276h1.401V6.96h3.044V8.69h-3.044v5.758c0 .554.137.959.412 1.224.27.26.627.393 1.071.393z" fill="#1D3F5B"/></svg>